<svg width="24" height="24" viewBox="0 0 24 24" fill="none" xmlns="http://www.w3.org/2000/svg">
<mask id="mask0_3312_49174" style="mask-type:luminance" maskUnits="userSpaceOnUse" x="0" y="0" width="24" height="24">
<path d="M0 0H24V24H0V0Z" fill="white"/>
</mask>
<g mask="url(#mask0_3312_49174)">
<path d="M21.1769 6.01605L15.4126 0.251786C15.2519 0.0910715 15.0349 0 14.8072 0H3.42868C2.95457 0 2.57153 0.383036 2.57153 0.857145V23.1429C2.57153 23.617 2.95457 24 3.42868 24H20.5715C21.0456 24 21.4287 23.617 21.4287 23.1429V6.6241C21.4287 6.39645 21.3376 6.1768 21.1769 6.01605ZM19.4519 7.01785H14.4108V1.97678L19.4519 7.01785ZM19.5001 22.0714H4.5001V1.92857H12.5894V7.7143C12.5894 8.02495 12.6992 8.2901 12.9189 8.5098C13.1386 8.72945 13.4037 8.8393 13.7144 8.8393H19.5001V22.0714ZM11.7858 14.8393H6.85725C6.73939 14.8393 6.64296 14.9357 6.64296 15.0535V16.3393C6.64296 16.4571 6.73939 16.5536 6.85725 16.5536H11.7858C11.9037 16.5536 12.0001 16.4571 12.0001 16.3393V15.0535C12.0001 14.9357 11.9037 14.8393 11.7858 14.8393ZM6.64296 11.4107V12.6965C6.64296 12.8143 6.73939 12.9107 6.85725 12.9107H17.143C17.2608 12.9107 17.3572 12.8143 17.3572 12.6965V11.4107C17.3572 11.2928 17.2608 11.1965 17.143 11.1965H6.85725C6.73939 11.1965 6.64296 11.2928 6.64296 11.4107Z" fill="#5856D6"/>
</g>
</svg>
