<svg width="119" height="40" viewBox="0 0 119 40" fill="none" xmlns="http://www.w3.org/2000/svg">
<path d="M4 0.5H115C116.933 0.5 118.5 2.067 118.5 4V36C118.5 37.933 116.933 39.5 115 39.5H4C2.067 39.5 0.5 37.933 0.5 36V4C0.500001 2.067 2.067 0.5 4 0.5Z" fill="white" fill-opacity="0.8"/>
<path d="M4 0.5H115C116.933 0.5 118.5 2.067 118.5 4V36C118.5 37.933 116.933 39.5 115 39.5H4C2.067 39.5 0.5 37.933 0.5 36V4C0.500001 2.067 2.067 0.5 4 0.5Z" stroke="#38AEE0" stroke-linecap="round"/>
<path d="M37.856 25V17.356H35.07V15.662H42.532V17.356H39.76V25H37.856ZM42.8143 25V18.42L44.4663 18.168L44.5643 18.84C44.8163 18.5693 45.0683 18.3827 45.3203 18.28C45.5816 18.168 45.8523 18.112 46.1323 18.112C46.291 18.112 46.459 18.1307 46.6363 18.168C46.8136 18.2053 46.9956 18.2567 47.1823 18.322L46.8603 19.904C46.6736 19.8293 46.4963 19.7733 46.3283 19.736C46.1696 19.6893 46.011 19.666 45.8523 19.666C45.591 19.666 45.353 19.7267 45.1383 19.848C44.933 19.9693 44.7696 20.1093 44.6483 20.268V25H42.8143ZM51.6109 25L51.5269 24.496C51.3309 24.7013 51.0789 24.8647 50.7709 24.986C50.4722 25.098 50.1409 25.154 49.7769 25.154C49.4782 25.154 49.1842 25.1027 48.8949 25C48.6149 24.9067 48.3676 24.7713 48.1529 24.594C47.9382 24.4073 47.7656 24.1833 47.6349 23.922C47.5042 23.6513 47.4389 23.348 47.4389 23.012C47.4389 22.5173 47.5696 22.1207 47.8309 21.822C48.1016 21.514 48.4376 21.276 48.8389 21.108C49.2402 20.94 49.6742 20.8233 50.1409 20.758C50.6076 20.6927 51.0416 20.646 51.4429 20.618V20.394C51.4429 20.114 51.3589 19.8947 51.1909 19.736C51.0322 19.568 50.7896 19.484 50.4629 19.484C50.2016 19.484 49.9636 19.54 49.7489 19.652C49.5436 19.7547 49.3616 19.8993 49.2029 20.086L47.9569 19.218C48.1342 18.994 48.3349 18.8073 48.5589 18.658C48.7922 18.5087 49.0256 18.392 49.2589 18.308C49.5016 18.224 49.7396 18.168 49.9729 18.14C50.2062 18.1027 50.4209 18.084 50.6169 18.084C51.0089 18.084 51.3682 18.1353 51.6949 18.238C52.0216 18.3313 52.3016 18.4853 52.5349 18.7C52.7776 18.9053 52.9642 19.1713 53.0949 19.498C53.2256 19.8153 53.2909 20.2027 53.2909 20.66V25H51.6109ZM51.4569 21.85C51.1956 21.8687 50.9296 21.892 50.6589 21.92C50.3976 21.948 50.1596 21.9993 49.9449 22.074C49.7302 22.1487 49.5529 22.2607 49.4129 22.41C49.2822 22.55 49.2169 22.7367 49.2169 22.97C49.2169 23.194 49.3009 23.376 49.4689 23.516C49.6369 23.6467 49.8842 23.712 50.2109 23.712C50.4442 23.712 50.6682 23.6653 50.8829 23.572C51.1069 23.4787 51.2982 23.362 51.4569 23.222V21.85ZM55.0643 25V18.42L56.7163 18.168L56.8143 18.784C57.0943 18.56 57.4163 18.3873 57.7803 18.266C58.1443 18.1447 58.5083 18.084 58.8723 18.084C59.7683 18.084 60.417 18.35 60.8183 18.882C61.2196 19.4047 61.4203 20.114 61.4203 21.01V25H59.5863V21.15C59.5863 20.8887 59.5723 20.66 59.5443 20.464C59.5163 20.2587 59.4603 20.0907 59.3763 19.96C59.2923 19.82 59.171 19.7173 59.0123 19.652C58.8536 19.5773 58.6436 19.54 58.3823 19.54C58.1116 19.54 57.841 19.6053 57.5703 19.736C57.309 19.8667 57.085 20.0253 56.8983 20.212V25H55.0643ZM64.0531 22.732C64.2117 23.0307 64.4357 23.2827 64.7251 23.488C65.0144 23.684 65.3971 23.782 65.8731 23.782C66.6104 23.782 66.9791 23.5627 66.9791 23.124C66.9791 23.0307 66.9557 22.942 66.9091 22.858C66.8717 22.774 66.7924 22.6947 66.6711 22.62C66.5497 22.5453 66.3864 22.4753 66.1811 22.41C65.9757 22.3447 65.7144 22.2793 65.3971 22.214C65.0424 22.1393 64.7157 22.0507 64.4171 21.948C64.1277 21.836 63.8804 21.7007 63.6751 21.542C63.4697 21.374 63.3111 21.178 63.1991 20.954C63.0871 20.7207 63.0311 20.4407 63.0311 20.114C63.0311 19.8153 63.0964 19.5447 63.2271 19.302C63.3577 19.05 63.5397 18.8353 63.7731 18.658C64.0157 18.4713 64.3097 18.3313 64.6551 18.238C65.0004 18.1353 65.3831 18.084 65.8031 18.084C66.5684 18.084 67.1751 18.21 67.6231 18.462C68.0711 18.7047 68.4164 19.0033 68.6591 19.358L67.3711 20.24C67.2031 20.016 66.9884 19.8293 66.7271 19.68C66.4657 19.5307 66.1577 19.456 65.8031 19.456C65.4204 19.456 65.1497 19.5167 64.9911 19.638C64.8417 19.75 64.7671 19.8993 64.7671 20.086C64.7671 20.3007 64.8604 20.4547 65.0471 20.548C65.2337 20.6413 65.5791 20.7393 66.0831 20.842C66.4937 20.926 66.8577 21.0287 67.1751 21.15C67.5017 21.262 67.7771 21.402 68.0011 21.57C68.2251 21.738 68.3931 21.9433 68.5051 22.186C68.6264 22.4193 68.6871 22.704 68.6871 23.04C68.6871 23.404 68.6124 23.7213 68.4631 23.992C68.3137 24.2533 68.1084 24.4727 67.8471 24.65C67.5857 24.818 67.2777 24.944 66.9231 25.028C66.5684 25.112 66.1904 25.154 65.7891 25.154C64.9864 25.154 64.3331 25.0047 63.8291 24.706C63.3344 24.398 62.9564 24.0153 62.6951 23.558L64.0531 22.732ZM70.3827 25V19.652H69.4447V18.252H70.3827V18.014C70.3827 17.566 70.4434 17.1833 70.5647 16.866C70.686 16.5487 70.8494 16.2873 71.0547 16.082C71.2694 15.8673 71.5167 15.7133 71.7967 15.62C72.086 15.5173 72.3987 15.466 72.7347 15.466C73.1827 15.466 73.57 15.5033 73.8967 15.578C74.2327 15.6433 74.536 15.7413 74.8067 15.872L74.2747 17.272C73.8827 17.0853 73.4674 16.992 73.0287 16.992C72.7954 16.992 72.5994 17.0667 72.4407 17.216C72.282 17.3653 72.2027 17.636 72.2027 18.028V18.252H73.8407L73.6167 19.652H72.2167V25H70.3827ZM76.0291 22.06C76.0571 22.34 76.1177 22.5827 76.2111 22.788C76.3044 22.9933 76.4211 23.1613 76.5611 23.292C76.7011 23.4227 76.8551 23.5207 77.0231 23.586C77.2004 23.642 77.3824 23.67 77.5691 23.67C77.8957 23.67 78.1897 23.614 78.4511 23.502C78.7124 23.3807 78.9831 23.124 79.2631 22.732L80.6211 23.558C80.2291 24.146 79.7811 24.5613 79.2771 24.804C78.7824 25.0373 78.1944 25.154 77.5131 25.154C77.0651 25.154 76.6404 25.084 76.2391 24.944C75.8377 24.804 75.4831 24.5893 75.1751 24.3C74.8764 24.0013 74.6384 23.6327 74.4611 23.194C74.2837 22.7553 74.1951 22.2327 74.1951 21.626C74.1951 21.0567 74.2791 20.5527 74.4471 20.114C74.6244 19.6753 74.8624 19.3067 75.1611 19.008C75.4597 18.7093 75.8051 18.4807 76.1971 18.322C76.5984 18.1633 77.0231 18.084 77.4711 18.084C78.4137 18.084 79.1697 18.4153 79.7391 19.078C80.3177 19.7313 80.6164 20.7253 80.6351 22.06H76.0291ZM78.7731 20.814C78.7544 20.59 78.7031 20.394 78.6191 20.226C78.5444 20.058 78.4464 19.918 78.3251 19.806C78.2037 19.694 78.0684 19.61 77.9191 19.554C77.7697 19.498 77.6204 19.47 77.4711 19.47C77.1537 19.47 76.8551 19.5913 76.5751 19.834C76.2951 20.0673 76.1271 20.394 76.0711 20.814H78.7731ZM81.9705 25V18.42L83.6225 18.168L83.7205 18.84C83.9725 18.5693 84.2245 18.3827 84.4765 18.28C84.7379 18.168 85.0085 18.112 85.2885 18.112C85.4472 18.112 85.6152 18.1307 85.7925 18.168C85.9699 18.2053 86.1519 18.2567 86.3385 18.322L86.0165 19.904C85.8299 19.8293 85.6525 19.7733 85.4845 19.736C85.3259 19.6893 85.1672 19.666 85.0085 19.666C84.7472 19.666 84.5092 19.7267 84.2945 19.848C84.0892 19.9693 83.9259 20.1093 83.8045 20.268V25H81.9705ZM91.1866 25L89.0586 15.662H90.9486L92.0966 21.206L93.9166 15.662H95.0786L96.8986 21.206L98.0746 15.662H99.9506L97.8086 25H96.6186L94.4906 18.742L92.3766 25H91.1866ZM101.033 25V15.662H107.389V17.356H102.923V19.568H106.479V21.234H102.923V25H101.033Z" fill="#38AEE0"/>
<path d="M25.8072 12.6633C25.9956 12.8566 25.9956 13.1689 25.7973 13.3573C25.604 13.5457 25.2917 13.5457 25.1033 13.3474C23.3286 11.5281 20.9492 10.5119 18.4111 10.4821C15.9326 10.4524 13.5829 11.3744 11.7834 13.0698L12.6856 13.0797C12.9583 13.0847 13.1714 13.3028 13.1714 13.5754C13.1665 13.8431 12.9484 14.0612 12.6807 14.0612H12.6757L10.5838 14.0364C10.3112 14.0315 10.098 13.8134 10.098 13.5407L10.1178 11.4537C10.1228 11.1861 10.3409 10.9679 10.6086 10.9679H10.6135C10.8862 10.9729 11.0993 11.191 11.0993 11.4637L11.0894 12.3758C13.0772 10.4921 15.6798 9.47089 18.4211 9.50063C21.2268 9.54029 23.8491 10.6606 25.8072 12.6633Z" fill="#38AEE0"/>
<path d="M11.5025 26.6513C13.2772 28.4706 15.6566 29.4868 18.1947 29.5166C20.6733 29.5463 23.0229 28.6243 24.8224 26.9289L23.9202 26.919C23.6475 26.9141 23.4344 26.6959 23.4344 26.4233C23.4393 26.1556 23.6575 25.9375 23.9251 25.9375H23.9301L26.022 25.9623C26.2947 25.9672 26.5078 26.1854 26.5078 26.458L26.483 28.5499C26.4781 28.8176 26.26 29.0357 25.9923 29.0357H25.9873C25.7147 29.0308 25.5015 28.8126 25.5015 28.54L25.5114 27.6279C23.5534 29.4819 21.0054 30.503 18.3037 30.503C18.2641 30.503 18.2195 30.503 18.1798 30.503C15.379 30.4683 12.7517 29.348 10.7937 27.3453C10.6053 27.152 10.6053 26.8397 10.8036 26.6513C11.0019 26.453 11.3092 26.458 11.5025 26.6513Z" fill="#38AEE0"/>
<path d="M26.4067 19.7637C26.4067 19.6001 26.491 19.4464 26.6248 19.3572C26.7141 19.2977 26.7636 19.1986 26.7636 19.0945V17.305C26.7636 16.6853 26.263 16.1846 25.6433 16.1846H25.2567C24.637 16.1846 24.1363 16.6853 24.1363 17.305V19.0945C24.1363 19.1986 24.1909 19.2977 24.2751 19.3572C24.4139 19.4464 24.4933 19.6001 24.4933 19.7637V21.4888C24.4933 21.7069 24.3693 21.9052 24.171 21.9994C23.948 22.1084 22.793 22.6934 21.7222 23.5708C21.6379 23.6402 21.5884 23.7492 21.5884 23.8633V25.0877C21.5884 25.3603 21.3703 25.5784 21.0976 25.5784C20.825 25.5784 20.6069 25.3603 20.6069 25.0877V23.8633C20.6069 23.4568 20.7853 23.0751 21.1026 22.8123C22.0395 22.039 23.0458 21.4789 23.5117 21.236V19.9917C23.2837 19.7538 23.1499 19.4316 23.1499 19.0945V17.305C23.1499 16.145 24.0917 15.2031 25.2517 15.2031H25.6384C26.7983 15.2031 27.7402 16.145 27.7402 17.305V19.0945C27.7402 19.4316 27.6113 19.7538 27.3783 19.9917V21.236C27.8492 21.4789 28.8506 22.044 29.7875 22.8123C30.0998 23.0701 30.2832 23.4518 30.2832 23.8633V25.0877C30.2832 25.3603 30.0651 25.5784 29.7924 25.5784C29.5198 25.5784 29.3017 25.3603 29.3017 25.0877V23.8633C29.3017 23.7492 29.2521 23.6451 29.1678 23.5708C28.1021 22.6934 26.9421 22.1084 26.719 21.9994C26.5257 21.9052 26.3968 21.7019 26.3968 21.4888V19.7637H26.4067Z" fill="#38AEE0"/>
<path d="M6.49515 22.8202C7.43205 22.0468 8.43835 21.4867 8.90432 21.2438V19.9995C8.67629 19.7616 8.54245 19.4394 8.54245 19.1023V17.3128C8.54245 16.1528 9.4843 15.2109 10.6443 15.2109H11.0309C12.1909 15.2109 13.1328 16.1528 13.1328 17.3128V19.1023C13.1328 19.4394 13.0039 19.7616 12.7709 19.9995V21.2388C13.2418 21.4817 14.2432 22.0468 15.1801 22.8152C15.4924 23.073 15.6758 23.4547 15.6758 23.8661V25.0905C15.6758 25.3632 15.4577 25.5813 15.185 25.5813C14.9124 25.5813 14.6943 25.3632 14.6943 25.0905V23.8661C14.6943 23.7521 14.6447 23.648 14.5604 23.5736C13.4946 22.6962 12.3347 22.1113 12.1116 22.0022C11.9183 21.908 11.7943 21.7048 11.7943 21.4916V19.7666C11.7943 19.603 11.8786 19.4493 12.0124 19.3601C12.1017 19.3006 12.1513 19.2014 12.1513 19.0973V17.3078C12.1513 16.6882 11.6506 16.1875 11.0309 16.1875H10.6443C10.0246 16.1875 9.52396 16.6882 9.52396 17.3078V19.0973C9.52396 19.2014 9.57849 19.3006 9.66276 19.3601C9.80156 19.4493 9.88088 19.603 9.88088 19.7666V21.4916C9.88088 21.7098 9.75695 21.908 9.56362 22.0022C9.34055 22.1113 8.18058 22.6962 7.11479 23.5736C7.03052 23.643 6.98095 23.7521 6.98095 23.8661V25.0905C6.98095 25.3632 6.76283 25.5813 6.49019 25.5813C6.21754 25.5813 5.99943 25.3632 5.99943 25.0905V23.8661C6.00439 23.4596 6.18285 23.0779 6.49515 22.8202Z" fill="#38AEE0"/>
</svg>
