<svg width="24" height="24" viewBox="0 0 24 24" fill="none" xmlns="http://www.w3.org/2000/svg">
<mask id="mask0_3312_49456" style="mask-type:luminance" maskUnits="userSpaceOnUse" x="0" y="0" width="24" height="24">
<path d="M0 0H24V24H0V0Z" fill="white"/>
</mask>
<g mask="url(#mask0_3312_49456)">
<path d="M2.23828 9.03475C2.23828 7.92087 3.47592 5.81689 5.08484 5.19807C6.69377 4.57925 9.16904 4.57925 12.5107 4.57925C16.0998 4.57925 19.689 5.19807 19.689 5.19807L16.8424 2.35151L18.08 0L24.7633 6.807L17.9563 13.614L16.7186 11.2625L19.5652 8.41593C19.5652 8.41593 15.976 7.79711 12.2631 7.79711C9.04528 7.79711 6.57001 7.79711 4.96108 8.41593C3.35215 9.03475 2.23828 12.9952 2.23828 12.9952V9.03475Z" fill="#5856D6"/>
<path d="M22.5347 15.9621C22.5347 17.0759 21.2971 19.1799 19.6882 19.7987C18.0793 20.4176 15.604 20.4176 12.2624 20.4176C8.67322 20.4176 5.08407 19.7987 5.08407 19.7987L7.93064 22.6453L6.693 24.9968L0.00976562 18.1898L6.81677 11.3828L8.0544 13.7343L5.20784 16.5809C5.20784 16.5809 8.79698 17.1997 12.5099 17.1997C15.7277 17.1997 18.203 17.1997 19.8119 16.5809C21.4209 15.9621 22.5347 12.0016 22.5347 12.0016V15.9621Z" fill="#5856D6"/>
</g>
</svg>
