<svg width="20" height="20" viewBox="0 0 20 20" fill="none" xmlns="http://www.w3.org/2000/svg">
<path d="M16.875 8.65039V16.2578C16.875 16.9481 16.6309 17.5374 16.1428 18.0256C15.6546 18.5137 15.0653 18.7578 14.375 18.7578H5.625C4.93464 18.7578 4.34539 18.5137 3.85723 18.0256C3.36908 17.5374 3.125 16.9481 3.125 16.2578V3.75781C3.125 3.06746 3.36908 2.4782 3.85723 1.99005C4.34539 1.50189 4.93464 1.25781 5.625 1.25781H9.48242C9.73104 1.25785 9.97017 1.30543 10.1998 1.40055C10.4294 1.49567 10.6321 1.6311 10.8079 1.80684L16.3259 7.32485C16.5017 7.50066 16.6372 7.70338 16.7323 7.93301C16.8274 8.16265 16.8749 8.40184 16.875 8.65039Z" fill="#4A90E2"/>
</svg>
